# xmcd
#
# Track frame offsets: 
#        150
#        13147
#        39253
#        64865
#        87812
#        98215
#        125095
#        135935
#        175098
#        199879
#        220787
#        238372
#        265757
#        290786
#        309434
#
# Disc length: 4526 seconds
#
# Revision: 1
# Processed by: cddbd v1.5.2PL0 Copyright (c) Steve Scherf et al.
# Submitted via: ExactAudioCopy v0.95a5
#
DISCID=d911ac0f
DTITLE=Sina Vodjani - Karma - Love and Compassion [CD1]
DYEAR=2004
DGENRE=New Age
TTITLE0=Traveling To The Light
TTITLE1=Emaho
TTITLE2=Om Mani Padme Hung
TTITLE3=Vajra Sattva
TTITLE4=[Rain Of Blessing
TTITLE5=Karmapa Jenno
TTITLE6=Tara Mantra
TTITLE7=Vision Of Mahakala
TTITLE8=Invocation
TTITLE9=Arrival In Lhasa
TTITLE10=Om Shanti
TTITLE11=[Wisdom Of Love
TTITLE12=Neomin Choying
TTITLE13=Ave
TTITLE14=Early Morning
EXTD=YEAR: 2004
EXTT0=
EXTT1=
EXTT2=
EXTT3=
EXTT4=
EXTT5=
EXTT6=
EXTT7=
EXTT8=
EXTT9=
EXTT10=
EXTT11=
EXTT12=
EXTT13=
EXTT14=
PLAYORDER=
